<svg xmlns="http://www.w3.org/2000/svg" xmlns:xlink="http://www.w3.org/1999/xlink" style="display:none"><symbol id="bottom-arrow-s"><path d="M14.44.29a1 1 0 00-1.44 0L7.36 5.95 1.71.29A1 1 0 00.29 1.71l6.37 6.36a1 1 0 001.41 0l6.36-6.36a1 1 0 00.01-1.42z"/></symbol><symbol id="bottom-icon"><path d="M0 0h10L5 5z"/></symbol><symbol id="calendar-icon" viewBox="0 0 18.5 20"><path d="M16.5 3.5h-1.75V4a1 1 0 01-2 0v-.5h-7V4a1 1 0 01-2 0v-.5H2V6h14.5z" style="isolation:isolate" fill="#2c4a9d" opacity=".2"/><path d="M16.75 1.5h-2V1a1 1 0 00-2 0v.5h-7V1a1 1 0 00-2 0v.5h-2A1.76 1.76 0 000 3.25v15A1.76 1.76 0 001.75 20h15a1.76 1.76 0 001.75-1.75v-15a1.76 1.76 0 00-1.75-1.75zM2 3.5h1.75V4a1 1 0 002 0v-.5h7V4a1 1 0 002 0v-.5h1.75V6H2zM16.5 18H2V8h14.5z" fill="#2c4a9d"/></symbol><symbol id="ips-logo" viewBox="0 0 56.91 30.32"><path d="M5.17 29.86H0V.46h5.17zM19.1 19.24v10.62h-5.17V.46h8.37a16 16 0 015.37.8 8 8 0 013.57 2.14 8.5 8.5 0 011.85 3 10.17 10.17 0 01.59 3.53 9 9 0 01-2.86 6.76q-2.8 2.78-7.89 2.77c-1.72-.1-2.99-.14-3.83-.22zm3.69-14l-3.69.08v9c1.48.14 2.7.21 3.65.21a6 6 0 003.95-1.22 4.24 4.24 0 001.51-3.52c0-3.06-1.81-4.58-5.42-4.58zm28.66 16.81a3.22 3.22 0 00-1-2.35A6.94 6.94 0 0048 18c-1-.45-2.06-.95-3.24-1.51s-2.21-1.19-3.19-1.81a8 8 0 01-2.48-2.65 7.93 7.93 0 01-1-3.94 7.64 7.64 0 012.47-5.76A9.49 9.49 0 0147.29 0q5.6 0 8.4 3.15L52.92 7a7.22 7.22 0 00-5.21-2.18 4.76 4.76 0 00-3 .88 2.86 2.86 0 00-1.11 2.36 3.45 3.45 0 00.29 1.43 5.6 5.6 0 00.63 1 5.61 5.61 0 001.18.93l1.3.75 1.64.72 1.59.71a24.19 24.19 0 013.24 1.76 6.67 6.67 0 012.47 2.65 7.87 7.87 0 011 4 7.41 7.41 0 01-2.81 6 10.71 10.71 0 01-7 2.31 15 15 0 01-5.84-1.21 7.31 7.31 0 01-3.78-3.41l2.94-3.52a8.24 8.24 0 003 2.43 8.74 8.74 0 003.74.88 4.85 4.85 0 003.1-.92 3 3 0 001.16-2.52z"/></symbol><symbol id="left-arrow-s"><path d="M2.41 7.36l5.66-5.65A1 1 0 006.66.29L.29 6.66a1 1 0 000 1.41l6.36 6.36A1 1 0 008.07 13z"/></symbol><symbol id="map-pin-icon" viewBox="0 0 22 28"><path d="M20 26h-6.17C16.9 23.27 22 17.72 22 11a11 11 0 10-22 0c0 6.72 5.1 12.27 8.17 15H2a1 1 0 000 2h18a1 1 0 000-2zM2 11a9 9 0 0118 0c0 7.15-6.93 13.13-9 14.75-2.07-1.62-9-7.6-9-14.75z" fill="#2c4a9d"/><path d="M16 11a5 5 0 10-5 5 5 5 0 005-5zm-8 0a3 3 0 113 3 3 3 0 01-3-3z" fill="#2c4a9d"/><path d="M11 25.75c2.07-1.62 9-7.6 9-14.75a9 9 0 00-18 0c0 7.15 6.93 13.13 9 14.75zM11 6a5 5 0 11-5 5 5 5 0 015-5z" style="isolation:isolate" fill="#2c4a9d" opacity=".2"/></symbol><symbol id="right-arrow-s"><path d="M8.07 6.66L1.71.29A1 1 0 00.29 1.71l5.66 5.65L.29 13a1 1 0 001.41 1.41l6.37-6.34a1 1 0 000-1.41z"/></symbol><symbol id="right-icon"><path d="M0 10V0l5 5z"/></symbol><symbol id="top-arrow-s"><path fill="#1d1c1b" d="M14.44 6.66L8.07.29a1 1 0 00-1.41 0L.29 6.66a1 1 0 101.42 1.41l5.65-5.66L13 8.07a1 1 0 101.41-1.41z"/></symbol><symbol id="top-icon"><path d="M10 5H0l5-5z"/></symbol></svg>