<svg xmlns="http://www.w3.org/2000/svg" viewBox="0 0 56.91 30.32"><path d="M5.17 29.86H0V.46h5.17zM19.1 19.24v10.62h-5.17V.46H22.3a16 16 0 0 1 5.37.8 8 8 0 0 1 3.57 2.14 8.5 8.5 0 0 1 1.85 3 10.17 10.17 0 0 1 .59 3.53 9 9 0 0 1-2.86 6.76q-2.8 2.78-7.89 2.77c-1.72-.1-2.99-.14-3.83-.22zm3.69-14l-3.69.08v9c1.48.14 2.7.21 3.65.21a6 6 0 0 0 3.95-1.22 4.24 4.24 0 0 0 1.51-3.52c0-3.06-1.81-4.58-5.42-4.58zm28.66 16.81a3.22 3.22 0 0 0-1-2.35A6.94 6.94 0 0 0 48 18c-1-.45-2.06-.95-3.24-1.51s-2.21-1.19-3.19-1.81a8 8 0 0 1-2.48-2.65 7.93 7.93 0 0 1-1-3.94 7.64 7.64 0 0 1 2.47-5.76A9.49 9.49 0 0 1 47.29 0q5.6 0 8.4 3.15L52.92 7a7.22 7.22 0 0 0-5.21-2.18 4.76 4.76 0 0 0-3 .88 2.86 2.86 0 0 0-1.11 2.36 3.45 3.45 0 0 0 .29 1.43 5.6 5.6 0 0 0 .63 1 5.61 5.61 0 0 0 1.18.93l1.3.75 1.64.72 1.59.71a24.19 24.19 0 0 1 3.24 1.76 6.67 6.67 0 0 1 2.47 2.65 7.87 7.87 0 0 1 1 4 7.41 7.41 0 0 1-2.81 6 10.71 10.71 0 0 1-7 2.31 15 15 0 0 1-5.84-1.21 7.31 7.31 0 0 1-3.78-3.41l2.94-3.52a8.24 8.24 0 0 0 3 2.43 8.74 8.74 0 0 0 3.74.88 4.85 4.85 0 0 0 3.1-.92 3 3 0 0 0 1.16-2.52z"/></svg>