<svg xmlns="http://www.w3.org/2000/svg" viewBox="0 0 22 28"><path d="M20 26h-6.17C16.9 23.27 22 17.72 22 11a11 11 0 10-22 0c0 6.72 5.1 12.27 8.17 15H2a1 1 0 000 2h18a1 1 0 000-2zM2 11a9 9 0 0118 0c0 7.15-6.93 13.13-9 14.75-2.07-1.62-9-7.6-9-14.75z" fill="#2c4a9d"/><path d="M16 11a5 5 0 10-5 5 5 5 0 005-5zm-8 0a3 3 0 113 3 3 3 0 01-3-3z" fill="#2c4a9d"/><path d="M11 25.75c2.07-1.62 9-7.6 9-14.75a9 9 0 00-18 0c0 7.15 6.93 13.13 9 14.75zM11 6a5 5 0 11-5 5 5 5 0 015-5z" style="isolation:isolate" fill="#2c4a9d" opacity=".2"/></svg>